<svg width="100" height="100" viewBox="0 0 100 100" fill="none" xmlns="http://www.w3.org/2000/svg">
<g id="Desktop - 1">
<g clip-path="url(#clip0)">
<rect width="100" height="100" rx="50" fill="white"/>
<g id="iconmonstr-download-12 1">
<g clip-path="url(#clip1)">
<path id="Vector" d="M25 54.1667H41.6667V25H58.3333V54.1667L75 54.1667L50 79.1667L25 54.1667ZM91.6667 50C91.6667 72.975 72.975 91.6667 50 91.6667C27.025 91.6667 8.33333 72.975 8.33333 50C8.33333 27.025 27.025 8.33333 50 8.33333C72.975 8.33333 91.6667 27.025 91.6667 50ZM100 50C100 22.3875 77.6125 0 50 0C22.3875 0 -1.90735e-06 22.3875 -1.90735e-06 50C-1.90735e-06 77.6125 22.3875 100 50 100C77.6125 100 100 77.6125 100 50Z" fill="url(#paint0_linear)"/>
</g>
</g>
</g>
</g>
<defs>
<linearGradient id="paint0_linear" x1="50" y1="0" x2="50" y2="100" gradientUnits="userSpaceOnUse">
<stop stop-color="#2400FF"/>
<stop offset="0.286458" stop-color="#5CD6F4"/>
<stop offset="0.526042" stop-color="#5AFF4B"/>
<stop offset="0.739583" stop-color="#7F9DCA"/>
<stop offset="1" stop-color="#FF0000"/>
</linearGradient>
<clipPath id="clip0">
<rect width="100" height="100" rx="50" fill="white"/>
</clipPath>
<clipPath id="clip1">
<rect x="-1.90735e-06" width="100" height="100" rx="50" fill="white"/>
</clipPath>
</defs>
</svg>
