<svg width="797" height="660" viewBox="0 0 797 660" fill="none" xmlns="http://www.w3.org/2000/svg">
<rect width="797" height="660" fill="white"/>
<ellipse cx="416" cy="224.5" rx="381" ry="216.5" fill="#EFF4FF" fill-opacity="0.4"/>
<ellipse cx="189.5" cy="502" rx="98.5" ry="77" fill="#F9FAFF"/>
<ellipse cx="46" cy="598.5" rx="45" ry="37.5" fill="#F9FAFF"/>
<path d="M249.422 197H240.422V128.75H249.422V197ZM276.328 134V146.281H285.797V152.984H276.328V184.438C276.328 186.469 276.75 188 277.594 189.031C278.438 190.031 279.875 190.531 281.906 190.531C282.906 190.531 284.281 190.344 286.031 189.969V197C283.75 197.625 281.531 197.938 279.375 197.938C275.5 197.938 272.578 196.766 270.609 194.422C268.641 192.078 267.656 188.75 267.656 184.438V152.984H258.422V146.281H267.656V134H276.328ZM296.578 147.969L291.656 144.594C294.562 140.531 296.062 136.25 296.156 131.75V125H304.734V131.094C304.703 134.219 303.922 137.344 302.391 140.469C300.891 143.562 298.953 146.062 296.578 147.969ZM339.469 183.547C339.469 181.203 338.578 179.391 336.797 178.109C335.047 176.797 331.969 175.672 327.562 174.734C323.188 173.797 319.703 172.672 317.109 171.359C314.547 170.047 312.641 168.484 311.391 166.672C310.172 164.859 309.562 162.703 309.562 160.203C309.562 156.047 311.312 152.531 314.812 149.656C318.344 146.781 322.844 145.344 328.312 145.344C334.062 145.344 338.719 146.828 342.281 149.797C345.875 152.766 347.672 156.562 347.672 161.188H338.953C338.953 158.812 337.938 156.766 335.906 155.047C333.906 153.328 331.375 152.469 328.312 152.469C325.156 152.469 322.688 153.156 320.906 154.531C319.125 155.906 318.234 157.703 318.234 159.922C318.234 162.016 319.062 163.594 320.719 164.656C322.375 165.719 325.359 166.734 329.672 167.703C334.016 168.672 337.531 169.828 340.219 171.172C342.906 172.516 344.891 174.141 346.172 176.047C347.484 177.922 348.141 180.219 348.141 182.938C348.141 187.469 346.328 191.109 342.703 193.859C339.078 196.578 334.375 197.938 328.594 197.938C324.531 197.938 320.938 197.219 317.812 195.781C314.688 194.344 312.234 192.344 310.453 189.781C308.703 187.188 307.828 184.391 307.828 181.391H316.5C316.656 184.297 317.812 186.609 319.969 188.328C322.156 190.016 325.031 190.859 328.594 190.859C331.875 190.859 334.5 190.203 336.469 188.891C338.469 187.547 339.469 185.766 339.469 183.547ZM391.406 146.281L391.641 151.906C395.359 147.531 400.375 145.344 406.688 145.344C413.781 145.344 418.609 148.062 421.172 153.5C422.859 151.062 425.047 149.094 427.734 147.594C430.453 146.094 433.656 145.344 437.344 145.344C448.469 145.344 454.125 151.234 454.312 163.016V197H445.641V163.531C445.641 159.906 444.812 157.203 443.156 155.422C441.5 153.609 438.719 152.703 434.812 152.703C431.594 152.703 428.922 153.672 426.797 155.609C424.672 157.516 423.438 160.094 423.094 163.344V197H414.375V163.766C414.375 156.391 410.766 152.703 403.547 152.703C397.859 152.703 393.969 155.125 391.875 159.969V197H383.203V146.281H391.406ZM484.031 184.297L495.844 146.281H505.125L484.734 204.828C481.578 213.266 476.562 217.484 469.688 217.484L468.047 217.344L464.812 216.734V209.703L467.156 209.891C470.094 209.891 472.375 209.297 474 208.109C475.656 206.922 477.016 204.75 478.078 201.594L480 196.438L461.906 146.281H471.375L484.031 184.297ZM164.859 303.859C167.953 303.859 170.656 302.922 172.969 301.047C175.281 299.172 176.562 296.828 176.812 294.016H185.016C184.859 296.922 183.859 299.688 182.016 302.312C180.172 304.938 177.703 307.031 174.609 308.594C171.547 310.156 168.297 310.938 164.859 310.938C157.953 310.938 152.453 308.641 148.359 304.047C144.297 299.422 142.266 293.109 142.266 285.109V283.656C142.266 278.719 143.172 274.328 144.984 270.484C146.797 266.641 149.391 263.656 152.766 261.531C156.172 259.406 160.188 258.344 164.812 258.344C170.5 258.344 175.219 260.047 178.969 263.453C182.75 266.859 184.766 271.281 185.016 276.719H176.812C176.562 273.438 175.312 270.75 173.062 268.656C170.844 266.531 168.094 265.469 164.812 265.469C160.406 265.469 156.984 267.062 154.547 270.25C152.141 273.406 150.938 277.984 150.938 283.984V285.625C150.938 291.469 152.141 295.969 154.547 299.125C156.953 302.281 160.391 303.859 164.859 303.859ZM192.469 284.172C192.469 279.203 193.438 274.734 195.375 270.766C197.344 266.797 200.062 263.734 203.531 261.578C207.031 259.422 211.016 258.344 215.484 258.344C222.391 258.344 227.969 260.734 232.219 265.516C236.5 270.297 238.641 276.656 238.641 284.594V285.203C238.641 290.141 237.688 294.578 235.781 298.516C233.906 302.422 231.203 305.469 227.672 307.656C224.172 309.844 220.141 310.938 215.578 310.938C208.703 310.938 203.125 308.547 198.844 303.766C194.594 298.984 192.469 292.656 192.469 284.781V284.172ZM201.188 285.203C201.188 290.828 202.484 295.344 205.078 298.75C207.703 302.156 211.203 303.859 215.578 303.859C219.984 303.859 223.484 302.141 226.078 298.703C228.672 295.234 229.969 290.391 229.969 284.172C229.969 278.609 228.641 274.109 225.984 270.672C223.359 267.203 219.859 265.469 215.484 265.469C211.203 265.469 207.75 267.172 205.125 270.578C202.5 273.984 201.188 278.859 201.188 285.203ZM253.781 310V265.984H245.766V259.281H253.781V254.078C253.781 248.641 255.234 244.438 258.141 241.469C261.047 238.5 265.156 237.016 270.469 237.016C272.469 237.016 274.453 237.281 276.422 237.812L275.953 244.844C274.484 244.562 272.922 244.422 271.266 244.422C268.453 244.422 266.281 245.25 264.75 246.906C263.219 248.531 262.453 250.875 262.453 253.938V259.281H273.281V265.984H262.453V310H253.781ZM287.156 310V265.984H279.141V259.281H287.156V254.078C287.156 248.641 288.609 244.438 291.516 241.469C294.422 238.5 298.531 237.016 303.844 237.016C305.844 237.016 307.828 237.281 309.797 237.812L309.328 244.844C307.859 244.562 306.297 244.422 304.641 244.422C301.828 244.422 299.656 245.25 298.125 246.906C296.594 248.531 295.828 250.875 295.828 253.938V259.281H306.656V265.984H295.828V310H287.156ZM336.188 310.938C329.312 310.938 323.719 308.688 319.406 304.188C315.094 299.656 312.938 293.609 312.938 286.047V284.453C312.938 279.422 313.891 274.938 315.797 271C317.734 267.031 320.422 263.938 323.859 261.719C327.328 259.469 331.078 258.344 335.109 258.344C341.703 258.344 346.828 260.516 350.484 264.859C354.141 269.203 355.969 275.422 355.969 283.516V287.125H321.609C321.734 292.125 323.188 296.172 325.969 299.266C328.781 302.328 332.344 303.859 336.656 303.859C339.719 303.859 342.312 303.234 344.438 301.984C346.562 300.734 348.422 299.078 350.016 297.016L355.312 301.141C351.062 307.672 344.688 310.938 336.188 310.938ZM335.109 265.469C331.609 265.469 328.672 266.75 326.297 269.312C323.922 271.844 322.453 275.406 321.891 280H347.297V279.344C347.047 274.938 345.859 271.531 343.734 269.125C341.609 266.688 338.734 265.469 335.109 265.469ZM387.094 310.938C380.219 310.938 374.625 308.688 370.312 304.188C366 299.656 363.844 293.609 363.844 286.047V284.453C363.844 279.422 364.797 274.938 366.703 271C368.641 267.031 371.328 263.938 374.766 261.719C378.234 259.469 381.984 258.344 386.016 258.344C392.609 258.344 397.734 260.516 401.391 264.859C405.047 269.203 406.875 275.422 406.875 283.516V287.125H372.516C372.641 292.125 374.094 296.172 376.875 299.266C379.688 302.328 383.25 303.859 387.562 303.859C390.625 303.859 393.219 303.234 395.344 301.984C397.469 300.734 399.328 299.078 400.922 297.016L406.219 301.141C401.969 307.672 395.594 310.938 387.094 310.938ZM386.016 265.469C382.516 265.469 379.578 266.75 377.203 269.312C374.828 271.844 373.359 275.406 372.797 280H398.203V279.344C397.953 274.938 396.766 271.531 394.641 269.125C392.516 266.688 389.641 265.469 386.016 265.469ZM452.531 247V259.281H462V265.984H452.531V297.438C452.531 299.469 452.953 301 453.797 302.031C454.641 303.031 456.078 303.531 458.109 303.531C459.109 303.531 460.484 303.344 462.234 302.969V310C459.953 310.625 457.734 310.938 455.578 310.938C451.703 310.938 448.781 309.766 446.812 307.422C444.844 305.078 443.859 301.75 443.859 297.438V265.984H434.625V259.281H443.859V247H452.531ZM481.594 310H472.922V259.281H481.594V310ZM472.219 245.828C472.219 244.422 472.641 243.234 473.484 242.266C474.359 241.297 475.641 240.812 477.328 240.812C479.016 240.812 480.297 241.297 481.172 242.266C482.047 243.234 482.484 244.422 482.484 245.828C482.484 247.234 482.047 248.406 481.172 249.344C480.297 250.281 479.016 250.75 477.328 250.75C475.641 250.75 474.359 250.281 473.484 249.344C472.641 248.406 472.219 247.234 472.219 245.828ZM503.672 259.281L503.906 264.906C507.625 260.531 512.641 258.344 518.953 258.344C526.047 258.344 530.875 261.062 533.438 266.5C535.125 264.062 537.312 262.094 540 260.594C542.719 259.094 545.922 258.344 549.609 258.344C560.734 258.344 566.391 264.234 566.578 276.016V310H557.906V276.531C557.906 272.906 557.078 270.203 555.422 268.422C553.766 266.609 550.984 265.703 547.078 265.703C543.859 265.703 541.188 266.672 539.062 268.609C536.938 270.516 535.703 273.094 535.359 276.344V310H526.641V276.766C526.641 269.391 523.031 265.703 515.812 265.703C510.125 265.703 506.234 268.125 504.141 272.969V310H495.469V259.281H503.672ZM600.75 310.938C593.875 310.938 588.281 308.688 583.969 304.188C579.656 299.656 577.5 293.609 577.5 286.047V284.453C577.5 279.422 578.453 274.938 580.359 271C582.297 267.031 584.984 263.938 588.422 261.719C591.891 259.469 595.641 258.344 599.672 258.344C606.266 258.344 611.391 260.516 615.047 264.859C618.703 269.203 620.531 275.422 620.531 283.516V287.125H586.172C586.297 292.125 587.75 296.172 590.531 299.266C593.344 302.328 596.906 303.859 601.219 303.859C604.281 303.859 606.875 303.234 609 301.984C611.125 300.734 612.984 299.078 614.578 297.016L619.875 301.141C615.625 307.672 609.25 310.938 600.75 310.938ZM599.672 265.469C596.172 265.469 593.234 266.75 590.859 269.312C588.484 271.844 587.016 275.406 586.453 280H611.859V279.344C611.609 274.938 610.422 271.531 608.297 269.125C606.172 266.688 603.297 265.469 599.672 265.469Z" fill="url(#paint0_linear)"/>
<defs>
<linearGradient id="paint0_linear" x1="381" y1="130.5" x2="387.5" y2="389" gradientUnits="userSpaceOnUse">
<stop stop-color="#BB8C45"/>
<stop offset="1" stop-color="#BB8C45" stop-opacity="0"/>
</linearGradient>
</defs>
</svg>
